<?xml version="1.0" encoding="UTF-8"?>
<svg xmlns="http://www.w3.org/2000/svg" width="800" height="800" viewBox="0 0 800 800" fill="none">
  <!-- Kenyan flag colors gradient definitions -->
  <defs>
    <linearGradient id="kenya-black-gradient" x1="0%" y1="0%" x2="0%" y2="100%">
      <stop offset="0%" stop-color="#000000" />
      <stop offset="100%" stop-color="#333333" />
    </linearGradient>
    <linearGradient id="kenya-red-gradient" x1="0%" y1="0%" x2="100%" y2="0%">
      <stop offset="0%" stop-color="#ce1126" />
      <stop offset="100%" stop-color="#e63946" />
    </linearGradient>
    <linearGradient id="kenya-green-gradient" x1="0%" y1="0%" x2="100%" y2="0%">
      <stop offset="0%" stop-color="#006600" />
      <stop offset="100%" stop-color="#00a300" />
    </linearGradient>
    <filter id="glow" x="-20%" y="-20%" width="140%" height="140%">
      <feGaussianBlur stdDeviation="5" result="blur" />
      <feComposite in="SourceGraphic" in2="blur" operator="over" />
    </filter>
  </defs>
  
  <!-- Robot head using Kenyan flag colors - modernized and friendly -->
  <g transform="translate(30, 20) scale(1.15)">
    <!-- Head base with rounded corners -->
    <rect x="180" y="130" width="440" height="370" rx="80" fill="url(#kenya-black-gradient)" />
    
    <!-- Red band (Kenyan flag) with slight gradient and more rounded corners -->
    <rect x="180" y="230" width="440" height="110" rx="10" fill="url(#kenya-red-gradient)" />
    
    <!-- Green band (Kenyan flag) with slight gradient and more rounded corners -->
    <rect x="180" y="340" width="440" height="110" rx="10" fill="url(#kenya-green-gradient)" />
    
    <!-- White accent lines -->
    <rect x="180" y="220" width="440" height="10" fill="white" opacity="0.9" />
    <rect x="180" y="340" width="440" height="10" fill="white" opacity="0.9" />
    
    <!-- Robot eyes with glow effect - friendly, wider eyes -->
    <rect x="240" y="250" width="110" height="70" rx="35" fill="#ffffff" filter="url(#glow)" />
    <rect x="450" y="250" width="110" height="70" rx="35" fill="#ffffff" filter="url(#glow)" />
    
    <!-- Eye details - friendlier, rounder eyes -->
    <circle cx="295" cy="285" r="25" fill="#000000" />
    <circle cx="505" cy="285" r="25" fill="#000000" />
    
    <!-- Eye highlights for friendly look -->
    <circle cx="285" cy="275" r="10" fill="#00a0ff" />
    <circle cx="495" cy="275" r="10" fill="#00a0ff" />
    <circle cx="305" cy="295" r="5" fill="white" />
    <circle cx="515" cy="295" r="5" fill="white" />
    
    <!-- Robot antenna - modernized and friendly -->
    <rect x="355" y="80" width="40" height="50" rx="20" fill="url(#kenya-black-gradient)" />
    <rect x="325" y="50" width="100" height="30" rx="15" fill="url(#kenya-red-gradient)" />
    <circle cx="375" cy="50" r="20" fill="#ffffff" />
    <circle cx="375" cy="50" r="12" fill="#00a300" />
    
    <!-- Robot mouth - friendly smile -->
    <path d="M300 410 Q400 450 500 410" stroke="white" stroke-width="15" stroke-linecap="round" fill="none" />
    
    <!-- Mouth details -->
    <rect x="320" y="430" width="25" height="5" rx="2" fill="white" />
    <rect x="360" y="435" width="25" height="5" rx="2" fill="white" />
    <rect x="400" y="437" width="25" height="5" rx="2" fill="white" />
    <rect x="440" y="435" width="25" height="5" rx="2" fill="white" />
    <rect x="480" y="430" width="25" height="5" rx="2" fill="white" />
    
    <!-- Robot neck - sleeker design -->
    <path d="M340 500 L340 550 Q340 570 360 570 L440 570 Q460 570 460 550 L460 500 Z" fill="url(#kenya-black-gradient)" />
    
    <!-- Robot ears/side components - modernized and friendly -->
    <path d="M180 230 L140 240 Q120 250 120 270 L120 330 Q120 350 140 360 L180 370 Z" fill="url(#kenya-green-gradient)" />
    <path d="M620 230 L660 240 Q680 250 680 270 L680 330 Q680 350 660 360 L620 370 Z" fill="url(#kenya-green-gradient)" />
    
    <!-- Friendly details - cheeks -->
    <circle cx="210" cy="390" r="20" fill="#ce1126" opacity="0.3" />
    <circle cx="590" cy="390" r="20" fill="#ce1126" opacity="0.3" />
    
    <!-- Highlights -->
    <path d="M200 170 L600 170 L600 180 L200 180 Z" fill="white" opacity="0.3" />
    <path d="M240 500 L560 500 L560 510 L240 510 Z" fill="white" opacity="0.2" />
  </g>
</svg> 