<svg xmlns="http://www.w3.org/2000/svg" xmlns:xlink="http://www.w3.org/1999/xlink" width="500" zoomAndPan="magnify" viewBox="0 0 375 374.999991" height="500" preserveAspectRatio="xMidYMid meet" version="1.0"><defs><clipPath id="44e7777c14"><path d="M 0 6.324219 L 202 6.324219 L 202 362.574219 L 0 362.574219 Z M 0 6.324219 " clip-rule="nonzero"/></clipPath><clipPath id="00a33e066f"><path d="M 0 230 L 141 230 L 141 362.574219 L 0 362.574219 Z M 0 230 " clip-rule="nonzero"/></clipPath><clipPath id="3dfd96e19d"><path d="M 0 6.324219 L 159 6.324219 L 159 170 L 0 170 Z M 0 6.324219 " clip-rule="nonzero"/></clipPath><clipPath id="5b0236930f"><path d="M 110 121 L 375 121 L 375 362.574219 L 110 362.574219 Z M 110 121 " clip-rule="nonzero"/></clipPath><clipPath id="cc040b5a3d"><path d="M 97 124 L 371 124 L 371 362.574219 L 97 362.574219 Z M 97 124 " clip-rule="nonzero"/></clipPath><clipPath id="5b297c9eea"><path d="M 242 310 L 345 310 L 345 362.574219 L 242 362.574219 Z M 242 310 " clip-rule="nonzero"/></clipPath><clipPath id="c6a6f70a6d"><path d="M 187 6.324219 L 375 6.324219 L 375 113 L 187 113 Z M 187 6.324219 " clip-rule="nonzero"/></clipPath></defs><path fill="#7ed957" d="M 39.632812 65.566406 C 38.59375 98.007812 39.980469 167.054688 40.558594 218.199219 C 41.132812 269.347656 40.902344 302.601562 43.328125 320.613281 C 45.75 338.625 50.832031 341.394531 59.144531 342.78125 C 67.457031 344.164062 79.003906 344.164062 85.238281 336.546875 C 91.472656 328.925781 92.398438 313.683594 94.011719 284.128906 C 95.628906 254.570312 97.9375 210.695312 93.898438 175.136719 C 89.855469 139.574219 79.464844 112.328125 70.691406 91.429688 C 61.914062 70.53125 54.757812 55.984375 49.445312 46.632812 C 44.136719 37.277344 40.671875 33.121094 39.632812 65.566406 " fill-opacity="1" fill-rule="evenodd"/><path fill="#231f20" d="M 8.226562 8.644531 C 15.269531 9.335938 39.746094 9.800781 68.148438 9.335938 C 96.554688 8.875 128.882812 7.492188 143.429688 7.144531 C 157.976562 6.800781 154.742188 7.492188 148.855469 8.414062 C 142.96875 9.335938 134.421875 10.492188 127.957031 12.804688 C 121.492188 15.113281 117.105469 18.574219 114.332031 23.539062 C 111.5625 28.503906 110.410156 34.96875 109.714844 70.070312 C 109.023438 105.167969 108.792969 168.902344 108.90625 218.894531 C 109.023438 268.886719 109.484375 305.140625 110.753906 325.117188 C 112.023438 345.089844 114.101562 348.785156 122.183594 352.253906 C 130.265625 355.71875 144.351562 358.960938 149.894531 360.582031 C 155.4375 362.203125 152.433594 362.203125 144.238281 361.390625 C 136.039062 360.578125 122.648438 358.953125 109.484375 358.953125 C 96.324219 358.953125 83.390625 360.578125 79.695312 359.886719 C 76 359.195312 81.542969 356.183594 83.96875 318.421875 C 86.394531 280.664062 85.699219 208.15625 84.429688 157.007812 C 83.160156 105.859375 81.3125 76.074219 75.308594 57.601562 C 69.304688 39.125 59.144531 31.96875 49.5625 25.269531 C 39.980469 18.574219 30.972656 12.339844 21.273438 9.683594 C 11.578125 7.03125 1.183594 7.953125 8.226562 8.644531 " fill-opacity="1" fill-rule="evenodd"/><g clip-path="url(#44e7777c14)"><path stroke-linecap="butt" transform="matrix(0.0218509, 0, 0, -0.0218509, -0.0519513, 362.956911)" fill="none" stroke-linejoin="miter" d="M 378.86377 16215.53895 C 701.18318 16183.718176 1821.524688 16162.623506 3121.349662 16183.718176 C 4421.174635 16204.991615 5900.84061 16268.275625 6566.5741 16284.186012 C 7232.307589 16299.91763 7084.466129 16268.275625 6814.883395 16225.907516 C 6545.479429 16183.718176 6154.512958 16130.981501 5858.472502 16025.150613 C 5562.610814 15919.498494 5361.85391 15760.930931 5234.928353 15533.716305 C 5108.181563 15306.680448 5055.266119 15010.639992 5023.624114 13404.227228 C 4991.982109 11797.993231 4981.434774 8881.208158 4986.619057 6593.151518 C 4991.982109 4305.273645 5013.076779 2645.945437 5071.176506 1731.902652 C 5129.276233 817.681099 5224.381018 648.566201 5594.252819 489.819869 C 5964.124621 331.252306 6608.76344 182.874541 6862.435787 108.685659 C 7116.108135 34.496776 6978.81401 34.496776 6603.579157 71.680602 C 6228.344303 108.864427 5615.526258 183.232078 5013.076779 183.232078 C 4410.6273 183.232078 3818.903925 108.864427 3649.789027 140.506433 C 3480.674128 172.148438 3734.346476 309.978867 3845.361647 2038.132907 C 3956.198049 3766.286946 3924.556044 7084.585826 3866.456317 9425.379142 C 3808.35659 11766.351226 3723.799141 13129.638978 3449.032123 13975.034701 C 3174.265106 14820.430424 2709.109751 15148.112885 2270.590887 15454.521908 C 1832.072024 15760.930931 1419.832113 16046.424051 976.128966 16167.986558 C 532.24705 16289.370295 56.544361 16247.180955 378.86377 16215.53895 Z M 378.86377 16215.53895 " stroke="#231f20" stroke-width="67.403" stroke-opacity="1" stroke-miterlimit="22.926001"/></g><g clip-path="url(#00a33e066f)"><path stroke-linecap="butt" transform="matrix(0.0173186, 0, 0, -0.0173186, -0.0519513, 362.956911)" fill="none" stroke-linejoin="miter" d="M 2435.353617 2664.21447 C 2415.053928 2398.062989 2383.251081 1761.554954 2254.009726 1329.84823 C 2124.768371 898.367057 1898.088508 671.687194 1464.802919 491.471064 C 1031.517329 311.254933 391.400461 177.276984 571.391039 110.28801 C 751.381617 43.524587 1751.479641 43.524587 2738.495643 71.7186 C 3725.286093 99.912613 4699.220073 156.300639 5099.123951 269.978899 C 5499.253382 383.431606 5325.35271 554.174548 4991.76115 1299.624248 C 4658.16959 2045.073948 4164.661589 3365.004853 3764.757711 4118.348877 C 3364.853833 4871.6929 3058.102973 5058.450041 2858.489362 4730.948388 C 2658.650199 4403.897839 2565.948285 3562.588495 2514.973509 3194.036359 C 2464.224286 2825.709776 2455.653306 2930.365951 2435.353617 2664.21447 Z M 2435.353617 2664.21447 " stroke="#231f20" stroke-width="85.039001" stroke-opacity="1" stroke-miterlimit="22.926001"/></g><g clip-path="url(#3dfd96e19d)"><path stroke-linecap="butt" transform="matrix(0.0217522, 0, 0, -0.0217522, -0.0519513, 362.956911)" fill="none" stroke-linejoin="miter" d="M 116.421434 16243.875721 C 315.575315 16198.980797 892.564874 16120.504471 1269.502653 15945.234689 C 1646.260852 15770.144487 1822.967271 15498.260829 1948.313898 14921.81001 C 2073.840105 14345.35919 2148.006519 13464.341209 2344.466704 12620.316645 C 2540.92689 11776.47166 2859.321689 10969.799672 3050.394484 11107.716878 C 3241.467279 11245.634083 3305.21807 12328.499641 3591.827263 13278.476225 C 3878.436455 14228.632389 4387.904048 15045.899579 4737.725293 15530.944334 C 5087.366959 16015.809509 5277.182696 16168.27267 4890.008874 16232.74178 C 4502.655473 16297.031311 3538.312514 16273.147211 2672.917966 16271.710574 C 1807.702997 16270.094356 1041.436441 16290.746021 568.962264 16295.235514 C 96.308508 16299.904586 -82.732447 16288.770645 116.421434 16243.875721 Z M 116.421434 16243.875721 " stroke="#231f20" stroke-width="67.704002" stroke-opacity="1" stroke-miterlimit="22.926001"/></g><path fill="#f30342" d="M 115.382812 204.820312 C 134.691406 183.453125 173.234375 147.429688 202.667969 118.21875 C 232.097656 89.007812 252.421875 66.609375 265.351562 55.175781 C 278.28125 43.746094 283.824219 43.285156 276.78125 52.984375 C 269.738281 62.679688 250.109375 82.539062 221.707031 110.597656 C 193.304688 138.652344 156.128906 174.90625 133.703125 197.769531 C 111.277344 220.636719 103.601562 230.113281 99.800781 231.5 C 96 232.886719 96.074219 226.183594 115.382812 204.820312 " fill-opacity="1" fill-rule="evenodd"/><g clip-path="url(#5b0236930f)"><path stroke-linecap="butt" transform="matrix(0.0229697, 0, 0, -0.0229697, -0.0519513, 362.956911)" fill="none" stroke-linejoin="miter" d="M 7467.606839 8449.31376 C 7713.855408 8439.280151 8302.267046 8383.500088 8777.417946 8350.678283 C 9252.568846 8317.856478 9614.62907 8307.822869 10428.881937 7237.117763 C 11243.134804 6166.412656 12509.920436 4035.206113 13379.443182 2718.252437 C 14249.135989 1401.1287 14721.565911 898.597952 15234.300329 586.705772 C 15747.034747 274.813592 16300.073661 153.730041 16294.971826 93.358327 C 16289.869991 32.816551 15726.967529 32.816551 15058.457082 32.816551 C 14389.946635 32.816551 13615.828204 32.816551 13354.44419 138.594597 C 13093.060177 244.202582 13344.24052 455.758673 13072.822898 1295.350654 C 12801.405276 2135.112696 12007.219627 3602.910627 11248.236639 4743.850995 C 10489.253651 5884.961425 9765.303264 6699.214292 9202.400802 7186.779657 C 8639.328278 7674.515084 8237.30368 7835.222886 7822.01431 7989.128242 C 7406.895002 8143.033598 6978.680984 8289.966446 6908.275661 8355.269935 C 6837.870338 8420.573423 7125.443771 8404.417612 7221.188208 8414.111098 C 7317.102706 8423.804585 7221.188208 8459.347369 7467.606839 8449.31376 Z M 7467.606839 8449.31376 " stroke="#231f20" stroke-width="64.119003" stroke-opacity="1" stroke-miterlimit="22.926001"/></g><path fill="#231f20" d="M 158.535156 202.011719 C 173.910156 223.398438 204.621094 264.039062 224.824219 292.324219 C 245.03125 320.613281 254.730469 336.546875 267.410156 345.921875 C 280.085938 355.296875 295.746094 358.113281 307.050781 359.726562 C 318.359375 361.335938 325.316406 361.742188 322.21875 350.289062 C 319.125 338.832031 305.976562 315.523438 289.246094 289.203125 C 272.507812 262.882812 252.191406 233.558594 237.644531 215.085938 C 223.09375 196.613281 214.320312 188.992188 204.253906 183.101562 C 194.1875 177.207031 182.828125 173.046875 172.417969 172.214844 C 162.003906 171.378906 152.539062 173.875 147.828125 176.1875 C 143.117188 178.5 143.15625 180.628906 158.535156 202.011719 " fill-opacity="1" fill-rule="evenodd"/><g clip-path="url(#cc040b5a3d)"><path stroke-linecap="butt" transform="matrix(0.0199614, 0, 0, -0.0199614, -0.0519513, 362.956911)" fill="none" stroke-linejoin="miter" d="M 7944.674154 8062.806145 C 8714.909307 6991.60004 10253.422715 4955.447406 11265.726183 3538.457379 C 12277.83396 2121.271663 12763.731797 1323.052864 13398.94097 853.397283 C 14034.150144 383.741702 14818.670655 242.649338 15384.99701 161.82944 C 15951.519054 81.205232 16300.042634 60.85349 16144.860602 634.616058 C 15989.87426 1208.574316 15331.182308 2376.255505 14492.847095 3694.81355 C 13654.511883 5013.371594 12636.53341 6482.610804 11907.7845 7408.027989 C 11179.03559 8333.445173 10739.320552 8715.236023 10235.027872 9010.33628 C 9730.735191 9305.436537 9161.864869 9513.846201 8640.155794 9555.723824 C 8118.642409 9597.405756 7644.485962 9472.359958 7408.288342 9356.511581 C 7172.286413 9240.858894 7174.439001 9134.207939 7944.674154 8062.806145 Z M 7944.674154 8062.806145 " stroke="#231f20" stroke-width="73.780998" stroke-opacity="1" stroke-miterlimit="22.926001"/></g><g clip-path="url(#5b297c9eea)"><path fill="#ffbd59" d="M 264.195312 322.34375 C 262.347656 330.542969 260.269531 341.855469 253.921875 349.019531 C 247.570312 356.183594 236.949219 359.195312 245.957031 360.699219 C 254.960938 362.203125 283.59375 362.203125 305.898438 362.195312 C 328.199219 362.1875 344.171875 362.167969 344.097656 356.308594 C 344.023438 350.445312 327.898438 338.742188 312.757812 329.046875 C 297.609375 319.351562 283.445312 311.667969 275.554688 310.367188 C 267.660156 309.066406 266.046875 314.148438 264.195312 322.34375 " fill-opacity="1" fill-rule="evenodd"/></g><path fill="#231f20" d="M 263.855469 55.671875 C 266.464844 48.480469 271.679688 38.03125 269.902344 29.6875 C 268.121094 21.347656 259.347656 15.113281 249.535156 11.878906 C 239.71875 8.644531 228.867188 8.417969 240.644531 8.992188 C 252.421875 9.570312 286.824219 10.957031 310.035156 10.957031 C 333.238281 10.957031 345.246094 9.570312 346.171875 9.917969 C 347.09375 10.261719 336.9375 12.34375 326.425781 17.074219 C 315.921875 21.808594 305.066406 29.199219 294.148438 38.582031 C 283.226562 47.96875 272.238281 59.351562 266.742188 63.074219 C 261.25 66.796875 261.25 62.863281 263.855469 55.671875 " fill-opacity="1" fill-rule="evenodd"/><g clip-path="url(#c6a6f70a6d)"><path stroke-linecap="butt" transform="matrix(0.0217522, 0, 0, -0.0217522, -0.0519513, 362.956911)" fill="none" stroke-linejoin="miter" d="M 12133.176274 14127.349441 C 12253.13551 14458.135239 12492.874402 14938.510922 12411.165641 15321.913569 C 12329.2773 15705.495797 11925.941306 15992.104989 11474.657534 16140.796976 C 11023.553341 16289.488963 10524.50137 16299.904586 11065.934149 16273.506371 C 11607.366928 16246.928576 13189.284457 16183.177784 14256.167423 16183.177784 C 15323.050388 16183.177784 15875.078369 16246.928576 15917.638756 16230.945983 C 15960.019564 16215.14297 15492.932779 16119.426993 15009.863401 15901.955983 C 14526.973602 15684.305393 14027.921631 15344.540611 13525.816805 14913.010605 C 13023.711979 14481.660179 12518.554298 13958.364949 12265.885668 13787.04592 C 12013.217038 13615.906471 12013.217038 13796.743224 12133.176274 14127.349441 Z M 12133.176274 14127.349441 " stroke="#231f20" stroke-width="67.709999" stroke-opacity="1" stroke-miterlimit="22.926001"/></g></svg>